<svg xmlns="http://www.w3.org/2000/svg" viewBox="0 0 512 512">
  <defs>
    <linearGradient id="bg" x1="0%" y1="0%" x2="100%" y2="100%">
      <stop offset="0%" style="stop-color:#1a5276"/>
      <stop offset="100%" style="stop-color:#3498db"/>
    </linearGradient>
  </defs>
  <rect width="512" height="512" rx="96" fill="url(#bg)"/>
  <!-- Sun -->
  <circle cx="380" cy="130" r="50" fill="#f39c12" opacity="0.9"/>
  <!-- Sea waves -->
  <path d="M0 340 Q64 310 128 340 Q192 370 256 340 Q320 310 384 340 Q448 370 512 340 L512 420 Q448 390 384 420 Q320 450 256 420 Q192 390 128 420 Q64 450 0 420 Z" fill="#2980b9" opacity="0.5"/>
  <path d="M0 370 Q64 340 128 370 Q192 400 256 370 Q320 340 384 370 Q448 400 512 370 L512 512 L0 512 Z" fill="#3498db" opacity="0.4"/>
  <!-- Camper van -->
  <rect x="140" y="220" width="180" height="100" rx="12" fill="white"/>
  <rect x="280" y="230" width="30" height="40" rx="4" fill="#d6eaf8" stroke="#1a5276" stroke-width="2"/>
  <rect x="160" y="240" width="50" height="35" rx="4" fill="#d6eaf8" stroke="#1a5276" stroke-width="2"/>
  <rect x="220" y="240" width="50" height="35" rx="4" fill="#d6eaf8" stroke="#1a5276" stroke-width="2"/>
  <circle cx="185" cy="330" r="18" fill="#2c3e50"/>
  <circle cx="185" cy="330" r="8" fill="#95a5a6"/>
  <circle cx="290" cy="330" r="18" fill="#2c3e50"/>
  <circle cx="290" cy="330" r="8" fill="#95a5a6"/>
  <!-- Text -->
  <text x="256" y="460" text-anchor="middle" font-family="Georgia,serif" font-size="52" font-weight="700" fill="white" opacity="0.95">PUGLIA 2026</text>
</svg>
